<?xml version="1.0" encoding="utf-8"?>
<svg
  width="60" height="60"

  role="img"
  xmlns="http://www.w3.org/2000/svg"
>
  <title>Success icon</title>
  <desc>A checkmark inside of a circle</desc>
  <path d="M30 0C13.425 0 0 13.425 0 30s13.425 30 30 30 30-13.425 30-30S46.575 0 30 0zm0 57.75C14.67 57.75 2.25 45.33 2.25 30S14.67 2.25 30 2.25 57.75 14.67 57.75 30 45.33 57.75 30 57.75zm-3.12-19.365l-7.44-7.08 1.56-1.65 5.835 5.535L40.44 21.585l1.605 1.62c.015.015-15.165 15.18-15.165 15.18z"
        fill="#000" fill-rule="nonzero"/>
</svg>
